<svg viewBox="0 0 900 450" xmlns="http://www.w3.org/2000/svg" xmlns:xlink="http://www.w3.org/1999/xlink"><path d="m0 0h900v450h-900z" fill="#009543"/><path d="m0 0h900v300h-900z" fill="#ed4135"/><path d="m0 0h900v150h-900z" fill="#0035ad"/><circle cx="300" cy="225" fill="#fae600" r="147.48" stroke="#000" stroke-width="5"/><path d="m275 247h50m-50-37h50m-25-132v252" stroke="#000" stroke-width="6"/><path d="m240.62 360.419c60.191 24.58 116.608 1.51 116.608 1.51s-21.297-23.048-32.214-32.047c-10.653-8.778-41.991-8.431-52.685 0-8.924 7.038-34.52 32.97-31.709 30.537z"/><ellipse cx="300" cy="293" rx="16.5" ry="24"/><ellipse cx="300" cy="228.5" rx="20" ry="12.66"/><ellipse cx="300" cy="170" rx="20" ry="20"/><path d="m324 95.5c-.006-.0134 1.733 2.8708-1.913 9.436-17.426 31.383-34.913 32.061-38.232 34.764-3.658 2.978-5.202 2.774-5.202 2.774.261-2.688.504-13.679.695-14.738 2.645-14.663 24.796-14.461 42.132-29.4755 2.708-2.3455 2.514-2.7739 2.514-2.7739z"/><g id="a"><path d="m265.5 163s3.91436 11.22974 4.5 22.5c.93516 17.99657 18.18031 18.5 30 18.5v-10c-8.85851 0-16.55267-1.31658-23-14.5-3.18045-6.50336-11.5-16.5-11.5-16.5z"/><path d="m265 308s6.29638-7.76543 13.6619-25.97461c3.8429-9.50049 12.9496-15.02539 21.3381-15.02539v-14c-19.02757 0-28.1503 7.0552-29.11281 17.36332-1.97744 21.17757-5.88719 37.63668-5.88719 37.63668z"/></g><use transform="matrix(-1 0 0 1 600 0)" xlink:href="#a"/></svg>