<svg viewBox="0 0 600 400" xmlns="http://www.w3.org/2000/svg" xmlns:xlink="http://www.w3.org/1999/xlink"><defs><path id="a" d="m0-1 .58779 1.80902-1.53885-1.11804h1.90212l-1.53885 1.11804z" fill="#fff" transform="scale(21)"/></defs><path d="m0 0h600v400h-600z" fill="#002395"/><path d="m0 0h244v164h-244z" fill="#fff"/><path d="m0 0h80v160h-80z" fill="#002395"/><path d="m160 0h80v160h-80z" fill="#ed2939"/><path d="m355 183 12.875 20.5h36.625v71.5l-27.5-43-37 59h18l19-34 39 70 39-70 19 34h18l-37-59-27.5 43v-39.5h16.5l12.25-19.5h-28.75v-12.5h36.625l12.875-20.5zm43 87.5h-40v14h40zm76 0h-40v14h40z" fill="#fff"/><use x="416" xlink:href="#a" y="362"/><use x="371" xlink:href="#a" y="328"/><use x="461" xlink:href="#a" y="328"/><use x="333" xlink:href="#a" y="227"/><use x="499" xlink:href="#a" y="227"/></svg>